<?xml version="1.0" encoding="utf-8"?>
<!-- Generator: Adobe Illustrator 16.0.0, SVG Export Plug-In . SVG Version: 6.00 Build 0)  -->
<!DOCTYPE svg PUBLIC "-//W3C//DTD SVG 1.1//EN" "http://www.w3.org/Graphics/SVG/1.1/DTD/svg11.dtd">
<svg version="1.1" xmlns="http://www.w3.org/2000/svg" xmlns:xlink="http://www.w3.org/1999/xlink" x="0px" y="0px"
	 width="841.89px" height="93.592px" viewBox="0 0 841.89 93.592" enable-background="new 0 0 841.89 93.592" xml:space="preserve">
<g id="Layer_1">
</g>
<g id="deewanas_kitchen_text_logo">
	<g>
		<g>
			<path fill="#F1F2F2" d="M45.012,70.929c0,5.925-2.166,10.994-6.494,15.208c-4.329,4.214-9.528,6.319-15.595,6.319H0.834V2.397
				h22.089c6.136,0,11.351,2.106,15.646,6.32c4.295,4.214,6.443,9.266,6.443,15.158V70.929z M14.896,79.026h8.461
				c2.243,0,4.129-0.781,5.659-2.346c1.529-1.563,2.293-3.398,2.293-5.505V24.072c0-2.14-0.782-3.975-2.345-5.506
				c-1.563-1.53-3.432-2.296-5.607-2.296h-8.461V79.026z"/>
			<path fill="#F1F2F2" d="M55.313,92.456V2.397H95.35v13.578H69.375v24.687h18.969v13.578H69.375v24.638H95.35v13.579H55.313z"/>
			<path fill="#F1F2F2" d="M106.361,92.456V2.397h40.036v13.578h-25.975v24.687h18.97v13.578h-18.97v24.638h25.975v13.579H106.361z"
				/>
			<path fill="#F1F2F2" d="M211.145,2.397h14.726l-14.573,90.059h-13.499l-7.926-49.127l-7.465,49.127h-13.447L153.366,2.397h14.726
				l7.363,48.239l6.749-48.239h14.726l7.364,48.239L211.145,2.397z"/>
			<path fill="#F1F2F2" d="M244.152,71.768l-3.425,20.688h-14.624l15.8-90.059h19.378l15.596,90.059h-14.726l-3.324-20.688H244.152z
				 M251.516,23.036l-5.215,35.5h10.43L251.516,23.036z"/>
			<path fill="#F1F2F2" d="M298.476,2.397l18.611,60.483V2.397h14.062v90.059h-15.062l-19.35-57.669v57.669h-14.062V2.397H298.476z"
				/>
			<path fill="#F1F2F2" d="M354.894,71.768l-3.426,20.688h-14.624l15.8-90.059h19.379l15.595,90.059h-14.727l-3.324-20.688H354.894z
				 M362.256,23.036l-5.215,35.5h10.43L362.256,23.036z"/>
			<path fill="#F1F2F2" d="M466.16,70.088c0.104,6.288-1.585,11.653-5.061,16.097c-2.284,3.028-5.507,5.151-9.664,6.369
				c-2.251,0.691-4.858,1.037-7.823,1.037c-5.523,0-10.092-1.316-13.703-3.951c-3.001-2.172-5.387-5.11-7.159-8.813
				c-1.773-3.703-2.796-7.973-3.068-12.812l13.345-0.889c0.613,5.233,2.063,9.019,4.346,11.356c1.671,1.777,3.597,2.618,5.778,2.518
				c3.068-0.1,5.522-1.546,7.362-4.345c0.955-1.415,1.433-3.406,1.433-5.974c0-3.785-1.757-7.521-5.267-11.208
				c-2.796-2.535-6.971-6.336-12.527-11.406c-4.671-4.345-7.959-8.245-9.868-11.702c-2.08-3.884-3.119-8.098-3.119-12.64
				c0-8.196,2.846-14.4,8.539-18.614c3.511-2.534,7.875-3.802,13.09-3.802c5.011,0,9.306,1.086,12.885,3.258
				c2.762,1.679,4.994,4.024,6.698,7.037c1.704,3.011,2.744,6.476,3.119,10.393l-13.499,2.37c-0.375-3.686-1.466-6.549-3.272-8.591
				c-1.296-1.514-3.153-2.271-5.573-2.271c-2.556,0-4.518,1.104-5.88,3.308c-1.092,1.778-1.637,3.984-1.637,6.617
				c0,4.115,1.841,8.312,5.521,12.591c1.399,1.612,3.479,3.522,6.24,5.727c3.271,2.634,5.436,4.477,6.493,5.53
				c3.441,3.357,6.117,6.665,8.028,9.924c0.885,1.514,1.601,2.93,2.146,4.247C465.395,64.642,466.092,67.522,466.16,70.088z"/>
			<path fill="#F1F2F2" d="M514.373,64.016v28.44h-14.062V2.397h14.062V34.49l17.078-32.093h15.033L527.259,39.23l22.496,53.226
				h-16.514l-14.727-36.488L514.373,64.016z"/>
			<path fill="#F1F2F2" d="M573.25,92.456h-14.062V2.397h14.062V92.456z"/>
			<path fill="#F1F2F2" d="M596.785,15.975h-14.931V2.397h43.872v13.578h-14.881v76.481h-14.061V15.975z"/>
			<path fill="#F1F2F2" d="M651.619,93.592c-6.205,0-11.471-2.091-15.8-6.271c-4.33-4.18-6.494-9.25-6.494-15.208V22.789
				c0-5.958,2.182-11.036,6.546-15.232c4.363-4.197,9.613-6.295,15.748-6.295c6.204,0,11.462,2.106,15.774,6.32
				c4.312,4.214,6.468,9.282,6.468,15.208v10.27h-14.572V22.541c0-2.172-0.794-4.023-2.379-5.554
				c-1.583-1.53-3.502-2.296-5.752-2.296c-2.215,0-4.107,0.766-5.674,2.296c-1.57,1.531-2.354,3.382-2.354,5.554v49.425
				c0,2.171,0.783,4.016,2.354,5.529c1.566,1.515,3.459,2.271,5.674,2.271c2.25,0,4.169-0.756,5.752-2.271
				c1.585-1.513,2.379-3.357,2.379-5.529V59.572h14.572v12.541c0,5.992-2.181,11.07-6.544,15.233
				C662.953,91.511,657.72,93.592,651.619,93.592z"/>
			<path fill="#F1F2F2" d="M697.405,54.338v38.118h-14.062V2.397h14.062v38.265h16.874V2.397h14.062v90.059h-14.062V54.338H697.405z
				"/>
			<path fill="#F1F2F2" d="M743.042,92.456V2.397h40.036v13.578h-25.975v24.687h18.97v13.578h-18.97v24.638h25.975v13.579H743.042z"
				/>
			<path fill="#F1F2F2" d="M809.216,2.397l18.612,60.483V2.397h14.062v90.059h-15.062l-19.35-57.669v57.669h-14.063V2.397H809.216z"
				/>
		</g>
		<path fill="#E4292A" d="M409.35,20.199c0.124,3.67-0.868,6.971-3.494,9.578c-3.061,3.026-7.703,2.91-11.72-0.031
			c-6.182-4.523-9.968-15.663-7.669-22.566c2.613-7.842,9.745-9.519,15.785-3.746C407.104,8.074,408.583,13.992,409.35,20.199"/>
	</g>
</g>
</svg>
