<?xml version="1.0" encoding="utf-8"?>
<!-- Generator: Adobe Illustrator 16.0.0, SVG Export Plug-In . SVG Version: 6.00 Build 0)  -->
<!DOCTYPE svg PUBLIC "-//W3C//DTD SVG 1.1//EN" "http://www.w3.org/Graphics/SVG/1.1/DTD/svg11.dtd">
<svg version="1.1" id="Layer_1" xmlns="http://www.w3.org/2000/svg" xmlns:xlink="http://www.w3.org/1999/xlink" x="0px" y="0px"
	 width="283.464px" height="549px" viewBox="0 0 283.464 549" enable-background="new 0 0 283.464 549" xml:space="preserve">
<rect y="0.019" fill="#13100D" width="283.09" height="548.981"/>
<g>
	<defs>
		<rect id="SVGID_1_" width="283.464" height="549"/>
	</defs>
	<clipPath id="SVGID_2_">
		<use xlink:href="#SVGID_1_"  overflow="visible"/>
	</clipPath>
	<path clip-path="url(#SVGID_2_)" fill="#7C7C7B" d="M21.095,119.347c0,0-1.774,1.242-1.833,2.957
		c-0.033,0.945-0.454,3.574,0.414,3.666c1.123,0.118,0.828-1.774,1.005-2.78C20.858,122.185,22.928,118.933,21.095,119.347"/>
	<path clip-path="url(#SVGID_2_)" fill="#7C7C7B" d="M44.173,207.213c0.771-2.057,0.771-1.671,1.286-2.828
		c0.514-1.158,1.928-2.186,2.828-4.115c0.9-1.928,3.343-2.7,5.271-3.728c0,0,4.629-2.571,5.143-2.7
		c0.514-0.129,3.857-3.086,5.786-4.886c1.928-1.799,3.214-3.728,3.599-3.985c0.386-0.257,3.086-3.471,3.729-3.857
		c0.643-0.386,3.471-0.772,4.885-1.029c1.415-0.257,3.729-0.385,4.629-0.257c0.9,0.129,1.414,0.129,3.085-1.285
		c1.672-1.415,1.672-2.186,1.8-3.343c0.129-1.157-1.607-2.94-2.699-3.343c-2.443-0.9-5.915,0.257-5.915,0.257
		c-0.514,0-3.342,0.514-3.342,0.514l-7.586,0.515c0,0-2.571,0.771-3.6,0.9c-1.028,0.128-4.628,0.257-6.042,1.414
		c-2.443,1.8-6.429,6.685-6.429,6.685l-6.171,8.743c0,0-0.771,1.286-1.286,2.057c-0.514,0.771-1.542,3.214-2.057,4.114
		c-0.514,0.9-2.571,4.243-2.571,4.243s-1.414,0.9-1.286,2.186c0.129,1.285,1.415,2.442,1.415,2.442l0.514,1.8
		c0,0,0.128,0.9,1.157,1.286C41.346,209.399,43.402,209.27,44.173,207.213"/>
	<path clip-path="url(#SVGID_2_)" fill="#7C7C7B" d="M23.539,41.305c0.211,0.295,0.656,0.39,0.969,0.208
		c2.005-2.495,3.797-5.16,5.353-7.957c0.61-1.097,1.186-2.217,1.921-3.234c1.354-1.874,3.198-3.326,4.825-4.969
		c0.362-0.365,0.716-0.743,0.993-1.176c0.777-1.214,0.988-3.716,0.953-4.164c-0.081-2.053-0.322-3.034-3.755-3.082
		c-3.66-0.093-5.317,3.617-5.317,3.617c-0.371,0.86-0.519,1.801-0.857,2.674c-0.286,0.739-0.703,1.419-1.097,2.106
		c-0.881,1.536-1.678,3.253-1.453,5.01c0.142,1.106,0.679,2.257,0.243,3.283c-0.264,0.619-0.831,1.043-1.3,1.526
		c-0.468,0.483-0.873,1.152-0.684,1.798c0.072,0.247,0.226,0.463,0.301,0.709C25.019,38.903,23.31,40.018,23.539,41.305"/>
	<path clip-path="url(#SVGID_2_)" fill="#7C7C7B" d="M241.652,113.702c-3.086,0.514-12.857,0-12.857,0
		c-4.628-0.171-14.57-3.428-21.599-4.8c-2.399-0.171-11.485-3.257-23.313-2.914c-11.829,0.343-26.229,6.343-29.143,8.228
		c-2.915,1.886-2.915,7.029-2.399,8.4c0.514,1.371,0.856,12,0.856,12c0.171,3.257-1.2,5.314-3.257,7.199
		c-1.886,1.886-9.771,5.509-9.771,5.509s-10.457,4.091-12.514,5.634c-2.057,1.543,0.343,1.714,1.543,1.714
		c1.2,0,4.285,4.971,4.285,4.971s2.4,2.4,5.314,2.914c2.916,0.515,5.657-0.342,5.657-0.342l12.429-1.715
		c5.915-0.342,7.114,2.915,7.114,2.915s2.571,4.628,5.057,7.028c2.485,2.4,5.314,2.314,5.314,2.314s0.515,0.086,1.972,0.086
		s3,1.028,3.6,2.743c0.6,1.714,2.743,3.342,6.514,3.599c3.771,0.258,12.429-0.428,12.429-0.428
		c17.484-3.086,25.284-7.286,27.513-8.314c1.543-0.514,16.886-7.971,18.943-8.914c0.651-0.299,1.087-0.261,1.38-0.071
		c-0.504-1.119-1.469-3.177-2.109-4c-0.9-1.157-4.5-0.257-4.5-0.257s-3.458,0.5-8.228,1.285c-5.449,0.897-13.069,1.114-18.899,1.157
		c-7.963,0.04-20.185-2.185-23.4-2.828c-3.214-0.643-4.757-2.829-4.757-2.829s-4.885-6.685-5.527-7.842
		c-0.644-1.157-0.644-3.214-0.644-3.214s0.129-8.614,0-10.157c-0.128-1.543,2.057-3.343,2.057-3.343s5.271-2.314,8.229-4.628
		c2.957-2.315,8.742-2.957,8.742-2.957l8.1-0.772c1.414-0.257,8.357-2.185,13.242-2.443c4.886-0.257,2.957-0.128,7.2,0.515
		c3.6,0.514,8.743-1.029,10.671-1.157c1.929-0.129,11.442-1.929,11.442-1.929l9.129-1.029c0.422,0,0.814-0.04,1.194-0.097
		c-3.303-0.369-7.371-1.167-8.78-1.402C247.823,113.188,244.738,113.188,241.652,113.702"/>
	<path clip-path="url(#SVGID_2_)" fill="#7C7C7B" d="M265.371,82.955c0.281-8.795-2.121-9.055-2.642-13.017
		c-0.768-5.858-2.042-8.618-2.275-9.086c-0.03-0.061-0.057-0.121-0.082-0.185c-10.677-26.858-38.845-40.358-43.251-42.333
		c-0.379-0.17-0.786-0.255-1.2-0.255H77.391c-3.186,0-5.211,2.966-5.608,3.602c-0.06,0.096-0.126,0.187-0.197,0.274l-3.144,3.931
		L63.947,31.3l-3.575,4.393c0,0-1.737,2.145-2.146,3.269c-0.408,1.123-1.838,1.941-2.656,2.554
		c-0.817,0.613-2.145,2.656-2.656,3.575c-0.51,0.919-1.43,1.328-2.451,2.452c-1.022,1.123-2.248,2.962-2.758,4.086
		c-0.334,0.733-0.841,1.813-1.153,2.476c-0.23,0.489-0.589,0.902-1.039,1.2c-0.401,0.265-0.809,0.664-1.179,2.146
		c-0.613,2.656-0.205,3.167-1.533,4.802c-1.328,1.634-2.247,4.086-2.247,4.494c0,0.409-1.022,2.759-2.043,4.189
		c-1.022,1.43-1.941,2.758-1.941,4.188c0,0.849-0.252,1.626-0.457,2.117c-0.122,0.292-0.286,0.558-0.495,0.796
		c-0.332,0.38-0.967,1.168-1.602,2.297c-1.977,2.966-0.51,5.166-2.544,7.806c-0.137,0.178-0.262,0.365-0.36,0.568
		c-1.198,2.481-2.608,5.272-2.51,6.744c0.102,1.533-1.737,4.597-3.065,6.13c-1.328,1.532-1.328,6.333-1.328,6.333
		c-0.102,0.919-1.838,2.452-2.043,3.678c-0.204,1.225-0.919,4.903,0.613,4.29c1.533-0.613,2.043-3.678,2.248-4.086
		c0.204-0.409,1.532-1.124,1.941-2.145c0.408-1.022,2.656-5.108,2.656-6.436s1.736-2.962,2.962-4.393
		c1.226-1.43,4.29-7.252,4.29-7.252c0.289-0.867,3.843-3.728,5.021-4.91c0.085-0.086,0.163-0.17,0.235-0.267
		c0.947-1.27,12.649-12.018,13.85-13.12c0.061-0.056,0.119-0.113,0.175-0.175c1.141-1.251,8.753-9.151,10.446-10.744
		c1.509-1.42,4.098-3.227,4.751-3.675c0.126-0.087,0.241-0.18,0.352-0.285c0.97-0.922,4.535-4.633,5.05-5.169
		c0.043-0.045,0.083-0.084,0.129-0.126c0.744-0.684,7.515-6.902,7.901-7.192c0.409-0.306,1.124-0.817,1.43-2.451
		c0.307-1.635,2.043-2.35,2.861-2.759c0.717-0.358,4.029-2.447,4.83-2.953c0.117-0.074,0.222-0.151,0.327-0.241
		c0.945-0.802,6.117-5.147,10.37-7.736c4.39-2.672,11.633-3.204,12.567-3.263c0.065-0.004,0.126-0.006,0.192-0.007
		c9.521-0.084,17.368,3.67,21.784,3.387c0.127-0.008,0.255-0.008,0.382,0.001c5.477,0.408,7.715-3.305,11.35-5.021
		c3.399-1.606,10.468-2.775,11.515-2.942c0.088-0.014,0.175-0.024,0.265-0.031c11.92-0.872,11.92,4.096,11.92,4.096
		c1.124,4.291-6.742,6.845-10.727,7.662c-3.983,0.817-10.726,1.941-24.312,3.575c-6.129,1.022-9.398,2.86-9.398,2.86l0.189,0.189
		c3.016,0.14,5.536,0.505,6.427,0.646c0.171,0.027,0.34,0.064,0.502,0.127c1.813,0.701,9.764,0.96,10.982,0.996
		c0.102,0.003,0.202,0,0.305-0.007c0.822-0.062,5.075-0.369,12.88-0.675c10.67-0.304,14.834,1.017,15.626,1.314
		c0.121,0.045,0.241,0.079,0.368,0.107c1.738,0.384,13.195,2.888,19.548,3.539c0.077,0.008,0.152,0.011,0.23,0.012
		c5.459,0.06,11.712,4.285,11.712,4.285s9.257,6,16.284,9.086c7.407,3.251,14.826,12.555,15.544,13.469
		c0.036,0.048,0.071,0.095,0.105,0.145c11.257,16.467,20.89,22.813,22.244,23.657c0.102,0.063,0.208,0.118,0.317,0.168
		c0.836,0.382,1.479,0.787,1.986,1.187c-0.013-0.129-0.021-0.2-0.021-0.2V82.955z"/>
	<path clip-path="url(#SVGID_2_)" fill="#7C7C7B" d="M77.234,316.322c-1.294-1.387-2.773-3.235-3.143-3.513s-1.479-4.16-3.328-6.378
		c-1.849-2.22-3.883-3.514-3.883-3.514s-0.092-0.37-1.016-1.387c-0.925-1.017-4.16-5.177-4.623-5.73
		c-0.462-0.556-2.033-3.328-3.882-5.732c-1.849-2.403-5.085-7.672-6.564-9.614c-1.479-1.94-4.789-5.467-6.748-7.395
		c-0.207-0.204-1.611-1.809-1.611-1.809s-1.434-2.24-1.903-1.928c-0.429,0.285,0.463,2.073,0.463,2.073l1.017,2.126
		c0,0,1.295,2.219,1.387,2.866c0.092,0.646,0.924,2.588,1.017,3.79c0.092,1.201,1.294,3.234,1.479,3.513
		c0.185,0.277,1.387,3.143,1.387,3.143l1.664,3.514l1.386,3.512c0,0,1.017,2.311,1.757,4.068c0.739,1.756,1.941,3.051,1.941,3.051
		s4.53,4.252,5.362,4.991s3.327,0.925,3.327,0.925s2.589,0.276,3.606,0.924c1.017,0.646,2.126,3.328,2.311,4.715
		c0.185,1.386,0.739,2.034,0.739,2.034l3.236,3.604l4.622,3.605c0,0,3.051,2.126,3.79,0.925c0.74-1.202-0.832-2.589-1.109-2.959
		C79.638,319.373,78.528,317.709,77.234,316.322"/>
	<path clip-path="url(#SVGID_2_)" fill="#7C7C7B" d="M73.062,346.256c-2.416-3.146-5.507-2.696-5.507-2.696
		s-1.855,0.279-1.855,1.909s0.056,3.035-0.449,4.553c-0.506,1.518-4.103,9.104-4.159,13.6c-0.169,5.564,1.012,7.474,4.552,7.98
		c0,0,1.686,0.562,3.934-0.955c2.248-1.519,3.136-2.096,3.428-4.722c0.393-3.54,1.068-5.844,1.068-5.844s1.292-2.979,1.124-5.957
		C75.063,351.764,74.65,348.324,73.062,346.256"/>
	<path clip-path="url(#SVGID_2_)" fill="#7C7C7B" d="M151.411,304.615c-0.862,1.033-1.405,2.541-0.775,4.231
		c0.464-0.81,1.533-1.266,1.533-1.266l5.743-2.914c0.602-0.175,1.179-0.222,1.738-0.197c-0.693-0.382-2.6-1.401-3.519-1.555
		C154.999,302.727,152.355,303.481,151.411,304.615"/>
	<path clip-path="url(#SVGID_2_)" fill="#7C7C7B" d="M177.094,294.795c0,0.729,0.224,2.69,0.327,3.549
		c1.712-1.208,3.931-2.221,3.931-2.221s4.899-2.539,4.509-5.51c-0.41-2.487-2.139-3.462-3.139-4.299
		c-0.879-0.736-2.555-1.669-3.172-4.152c0.188,2.817,0.188,3.757,0.188,3.757s-1.889,2.455-1.7,3.4c0.189,0.944,0,2.643,0,3.21
		C178.037,293.095,177.094,293.852,177.094,294.795"/>
	<path clip-path="url(#SVGID_2_)" fill="#7C7C7B" d="M187.697,272.079c0,0,0-1.998-0.832-3.667l-5.617,8.066
		c0,0-0.238,0.361-0.536,0.946c1.388-1.179,3.501-1.632,4.814-2.339C187.697,273.916,187.697,272.079,187.697,272.079"/>
	<path clip-path="url(#SVGID_2_)" fill="#7C7C7B" d="M209.511,329.865c0.257-2.143-1.457-2.827-1.457-2.827l-2.829-2.658
		c-1.641-0.792-1.711-1.657-1.57-2.155c-1.979,0.607-6.061,1.354-14.286,1.463c0,0-6.421,0.567-8.12,3.777s-9.064,1.511-9.819,5.854
		c-0.756,4.344,1.322,6.799,3.21,7.742c1.888,0.945,5.476,1.7,14.729,1.322c7.876-0.321,15.886-1.463,20.31-1.563
		c-0.147-0.443-0.039-0.877,0.004-1.354c0.086-0.943-0.685-3.943-1.371-5.572C207.625,332.266,209.254,332.009,209.511,329.865"/>
	<path clip-path="url(#SVGID_2_)" fill="#7C7C7B" d="M253.732,129.524c-0.973,0.15-1.843,0.685-2.792,0.946
		c-0.842,0.231-1.726,0.241-2.599,0.259c-0.451,0.01-0.924,0.028-1.319,0.245c-0.61,0.333-0.902,1.15-0.643,1.795
		c0.049,0.119,0.112,0.231,0.177,0.342c-0.092,0.341-0.45-0.884-0.427-0.532c0.024,0.352,0.184,0.715,0.488,0.892
		c0.22,0.128,0.485,0.145,0.739,0.159c0.533,0.03,1.064,0.06,1.598,0.09c2.003,0.113,4.14,0.195,5.871-0.818
		c0.769-0.45,1.471-1.271,1.281-2.14C255.897,129.8,254.705,129.374,253.732,129.524"/>
	<path clip-path="url(#SVGID_2_)" fill="#7C7C7B" d="M180.712,277.423c-0.906,0.769-1.505,1.842-1.364,3.505
		c0.038,0.451,0.109,0.859,0.202,1.234c-0.001-0.007-0.001-0.012-0.002-0.019C179.426,280.314,180.169,278.489,180.712,277.423"/>
	<path clip-path="url(#SVGID_2_)" fill="#7C7C7B" d="M144.584,278.311c0,0-0.257-1.8-2.442-2.957s-6.814-3.728-6.814-3.728
		s-4.5-2.315-4.757-4.886c-0.9-6.043,1.672-9,2.057-9.385c0,0,0.9-1.029,3.6-2.186c2.7-1.157,4.243-2.571,6.043-3.214
		c1.8-0.643,1.543-0.386,4.5-0.9c2.804-0.488,8.725-1.077,9.879-1.472c-5.186-0.018-8.527-0.881-8.527-0.881
		s-5.677-1.67-11.188-5.511c-5.51-2.838-9.517-10.185-10.853-12.69c-1.336-2.505-0.835-7.013-1.002-8.85s-0.334-5.677-0.334-5.677
		l-2.505-6.847c0,0-4.174-9.685-5.176-11.855c-1.002-2.171-1.67-6.346-1.67-7.848c0-1.503-1.67-3.674-3.507-7.849
		c-0.235-0.535-0.387-0.976-0.47-1.343c-0.778,3.551-2.87,5.549-3.989,6.668l-4.114,4.114c0,0-5.143,2.7-7.585,2.7
		c-2.443,0-5.272-0.643-6.043-0.514c0,0-6.428,0.642-12.471,5.014c-6.043,4.371-9,7.971-9,7.971l-4.5,5.143
		c0,0-2.057,2.057-3.342,2.314c-1.286,0.257-4.115,1.543-4.115,2.828c0,1.286-0.385,10.414-0.385,10.414s0.128,1.029,0.643,2.314
		c0.514,1.286,0.385,2.957,0,4.629c-0.386,1.671-2.315,4.114-1.8,9.899c0.514,5.786,1.414,10.029,1.671,10.414
		c0.514,2.315,1.029,3.986,1.671,5.529c0,0,1.929,4.114,2.186,4.628c0.257,0.514,1.671,2.957,2.057,3.472
		c0.386,0.514,3.729,4.885,3.729,4.885l1.285,1.929c0,0,0.9,1.67,2.186,2.442c1.286,0.771,3.857,2.186,4.243,2.957
		c0.385,0.771,3.857,4.5,6.042,5.914c1.672,1.543,3.214,4.115,3.214,4.115s2.829,3.471,4.372,4.757
		c1.542,1.285,2.957,3.085,3.857,4.371c0.9,1.285,5.014,8.741,6.042,9.771c1.543,2.314,10.543,12.342,17.357,16.585
		c0,0,6.557,4.243,8.357,5.144c1.8,0.899,5.914,3.343,8.357,5.271c2.442,1.929,9.771,5.914,9.771,5.914s4.114,1.672,4.628-0.257
		s-0.386-3.343-1.543-3.857c-1.157-0.514-4.114-3.6-4.757-4.886c-0.643-1.285-2.314-4.628-2.7-5.528
		c-0.385-0.899-1.928-3.214-3.085-7.457c-1.157-4.242-2.7-7.07-3.729-8.613l-0.309-0.655c-0.052,0.643-0.48,1.251-1.876,2.155
		c-2.914,1.886-7.457,1.028-8.829,0.686c0,0-2.228-0.257-6.685-4.114c-1.714-2.143-5.657-4.543-7.543-5.485
		c0,0-10.371-5.4-14.742-13.028s-8.914-14.999-9.857-16.285c-2.743-4.629-6.942-7.028-9.428-14.143c0,0-1.286-4.799-1.714-8.228
		c0,0-0.343-2.4-1.8-4.028c-1.457-1.629-3.086-6-3.857-9.857c-0.772-3.857-1.029-2.657-1.2-5.057
		c-0.172-2.4-0.164-14.249-0.164-14.324c0,0,0.663-3.022,3.317-3.907c1.4-0.516,1.842-0.073,4.053-0.589
		c0,0,2.359-0.443,3.907-1.622c1.548-1.179,2.948-2.579,5.159-3.022c2.211-0.442,5.307-0.81,8.034-1.916
		c2.727-1.106,7.813-3.98,7.813-3.98s2.358-1.622,5.306-2.138c2.949-0.515,4.644,1.475,4.644,1.475l2.285,2.211
		c0,0,1.032,1.621,0.221,3.169c-0.811,1.548-0.885,2.801-0.221,3.759c0.663,0.958,6.928,8.255,6.928,8.255s1.474,0.737,1.769,4.127
		c0,1.548-0.148,3.17-0.148,3.17s-0.147,3.095-5.306,3.832c-3.812,0.545-5.381,3.833-5.16,7.076c0,0-0.073,0.737,1.696,3.096
		c1.768,2.358,6.338,8.697,8.107,11.424s5.381,6.854,7.149,8.844c1.769,1.99,2.58,2.138,6.265,8.108
		c3.686,5.97,5.676,6.265,7.297,7.002c1.622,0.737,6.707,2.948,8.255,5.749c0.74,1.339,0.972,2.169,0.91,2.707l0.252-0.051
		c0,0,2.572,0,2.7-0.771c0.129-0.771-0.771-2.571-0.771-2.571L144.584,278.311z"/>
	<path clip-path="url(#SVGID_2_)" fill="#7C7C7B" d="M121.072,171.055c0-1.67-3.507-1.503-3.507-1.503s-2.671,0.501-6.846-1.336
		c-1.051-0.387-1.842-1.033-2.472-1.769l-0.047,0.01c0,0,3.214,5.143,3.343,6.171c0.129,1.029,0.514,3.472,0.129,5.914
		c-0.008,0.096-0.023,0.186-0.033,0.279c0.712-0.717,2.583-0.479,4.257-1.421C118.566,175.897,121.072,172.725,121.072,171.055"/>
	<path clip-path="url(#SVGID_2_)" fill="#7C7C7B" d="M111.417,180.231c0.097-0.444,0.17-0.916,0.221-1.41
		C111.36,179.102,111.261,179.53,111.417,180.231"/>
	<path clip-path="url(#SVGID_2_)" fill="#FFFFFF" d="M263.252,97.074c0,0-10.285-6-22.456-23.828c0,0-7.808-10.121-15.601-13.542
		c-7.027-3.086-16.284-9.086-16.284-9.086s-6.344-4.285-11.828-4.285c-6.857-0.686-19.886-3.6-19.886-3.6s-3.771-1.714-15.771-1.371
		c-8.743,0.342-13.028,0.685-13.028,0.685s-9.737-0.254-11.297-1.07c0,0-11.355-2.004-17.7,0.501
		c-6.345,2.505-10.854,9.017-10.854,9.017L97.361,60.514c0,0-4.008,3.006-4.843,3.34c-0.835,0.333-8.182,3.506-10.854,6.846
		c-3.339,3.339-7.347,9.518-7.347,9.518l-3.339,5.51c0,0-4.175,5.844-5.01,5.844c-2.839,3.34-9.351,8.85-9.685,10.186
		c0,0-3.673,6.179-4.174,8.015c-0.501,1.837-4.008,9.351-4.008,9.351l-2.338,6.012l-3.005,5.677c0,0-2.171,4.174-3.173,7.347
		c-1.002,3.173-3.006,5.677-3.339,6.345c0,0-3.34,5.01-4.509,10.854c-2.004,7.013-2.505,12.023-2.505,12.023
		s-0.835,11.02-1.336,13.525c-0.5,2.505-1.836,7.347,1.336,9.351c3.173,2.004,5.177,1.169,8.683-3.006
		c3.507-4.174,6.012-10.018,6.012-10.018l4.174-6.179c0,0,3.34-4.341,6.846-7.347c3.507-3.005,9.351-5.51,11.856-6.345
		s11.188-3.006,11.188-3.006l6.011-1.169c0,0,4.509-0.835,7.18,0.167c2.672,1.002,6.68,3.841,9.351,4.843
		c2.672,1.002,4.095,2.672,5.137,4.007c1.042,1.336,1.876,4.843,5.049,6.012c4.175,1.836,6.846,1.335,6.846,1.335
		s3.507-0.166,3.507,1.503c0,1.67-2.505,4.843-5.177,6.346c-2.671,1.502-5.844,0-4.007,4.174c1.837,4.175,3.507,6.345,3.507,7.848
		c0,1.503,0.667,5.678,1.669,7.848c1.002,2.171,5.177,11.856,5.177,11.856l2.504,6.846c0,0,0.167,3.841,0.334,5.678
		c0.167,1.836-0.334,6.345,1.002,8.85c1.336,2.504,5.344,9.851,10.854,12.69c5.51,3.841,11.188,5.511,11.188,5.511
		s4.508,1.168,11.188,0.817l10.687-1.318c0,0,5.544-0.167,8.616,0.501c6.746,0.667,12.424,3.005,12.424,3.005s3.34,0.668,3.674,3.34
		c0.333,2.672-0.501,4.508-4.008,6.512c-3.508,2.004-4.676,5.176-3.842,6.846c0.835,1.67,0.835,3.674,0.835,3.674
		s0,1.837-2.17,3.006c-2.171,1.168-6.537,1.631-6.179,5.844c0.292,3.433,2.362,4.539,3.374,5.386c1,0.837,2.729,1.812,3.139,4.299
		c0.391,2.971-4.509,5.511-4.509,5.511s-5.011,2.285-5.783,4.086c-0.771,1.8-1.284,3.171-3.342,4.199
		c-3.343,1.715-5.657,1.285-7.543,1.2c-1.886-0.086-4.114-1.714-6.771-0.942l-5.743,2.914c0,0-2.828,1.199-1.286,3.171
		c1.543,1.972,3.686,3.086,4.115,3.257c0.428,0.172,3.257,1.115,5.484,0.6c2.229-0.514,4.801-2.742,7.2-3.257
		c2.4-0.514,3.857,0,6.171-0.857c2.314-0.856,2.4-1.714,4.2-2.057s3.257-0.171,3.771-0.171c0,0,0.257,0.086,2.399-0.772
		c2.144-0.856,2.057-0.771,3.171-0.771c1.115,0,4.886-0.6,5.915-1.114c1.028-0.515,2.314-0.686,3.342-0.771
		c1.029-0.085,5.4,0.086,5.914,0.172c1.887-0.086,4.286,1.628,5.914,2.914c0,0,1.715,1.8,1.543,3.856
		c-0.171,2.058-3.171,7.628-3.171,7.628l-3,2.4c0,0-1.114,1.372,1.371,2.572l2.829,2.657c0,0,1.714,0.685,1.457,2.827
		c-0.257,2.144-1.886,2.4-1.2,4.029c0.687,1.628,1.457,4.628,1.371,5.571c-0.085,0.942-0.428,1.714,1.457,2.743
		c1.886,1.027,1.715,2.741,1.972,4.113c0.258,1.371,0,10.8,0,10.8s-0.086,1.972,2.229,2.399c2.314,0.429,3.856,0.343,7.286,0.514
		c3.428,0.173,6.171,1.716,8.57,0c2.4-1.714,10.628-9.085,10.628-9.085l8.229-6.514c0,0,3.6-2.571,5.057-4.543
		c1.458-1.971,2.657-3.428,3.257-3.771c0.601-0.344,3.173-1.114,3.258-4.371c0.086-3.258,0-51.6,0-51.6s-0.171-2.828,0.258-4.113
		c0.428-1.286,0.685-1.714,0.685-3.771v-97.025c0,0-0.51-5.314-5.657-5.143c-2.57,0.086-3.514,0-3.514,0s-1.543,0.857-3.856-1.886
		c-2.314-2.742-2.229-5.228-2.229-5.228s0.085-2.4-1.972-1.457c-2.058,0.943-17.399,8.4-18.942,8.914
		c-2.228,1.028-10.027,5.228-27.513,8.314c0,0-8.657,0.686-12.428,0.429c-3.772-0.258-5.914-1.886-6.515-3.6
		c-0.6-1.715-2.143-2.743-3.6-2.743s-1.972-0.086-1.972-0.086s-2.828,0.086-5.314-2.314c-2.485-2.4-5.057-7.028-5.057-7.028
		s-1.2-3.257-7.114-2.915l-12.428,1.715c0,0-2.743,0.857-5.657,0.343c-2.914-0.515-5.314-2.915-5.314-2.915
		s-3.086-4.971-4.286-4.971s-3.599-0.171-1.542-1.714s12.513-5.634,12.513-5.634s7.886-3.623,9.771-5.509
		c2.058-1.885,3.429-3.942,3.257-7.199c0,0-0.343-10.629-0.857-12c-0.514-1.371-0.514-6.514,2.399-8.4
		c2.915-1.885,17.314-7.885,29.143-8.228c11.828-0.343,20.914,2.743,23.313,2.914c7.028,1.372,16.972,4.629,21.6,4.8
		c0,0,9.771,0.514,12.856,0c3.085-0.514,6.171-0.514,8.229-0.171c2.057,0.342,9.771,1.885,12.514,1.542
		c2.743-0.342,4.8-2.571,4.8-6.171v-7.714C267.194,101.188,267.302,98.863,263.252,97.074"/>
	<path clip-path="url(#SVGID_2_)" fill="#FFFFFF" d="M135.039,277.233c-1.622-0.737-3.612-1.032-7.297-7.002
		c-3.685-5.97-4.496-6.117-6.265-8.107c-1.769-1.991-5.38-6.118-7.149-8.845s-6.339-9.066-8.108-11.424
		c-1.769-2.359-1.695-3.096-1.695-3.096c-0.221-3.243,1.348-6.531,5.16-7.076c5.159-0.737,5.306-3.832,5.306-3.832
		s0.148-1.622,0.148-3.17c-0.295-3.39-1.769-4.127-1.769-4.127s-6.265-7.297-6.929-8.255c-0.663-0.958-0.589-2.211,0.222-3.759
		c0.81-1.548-0.222-3.169-0.222-3.169l-2.284-2.211c0,0-1.696-1.99-4.644-1.474c-2.948,0.515-5.306,2.137-5.306,2.137
		s-5.086,2.874-7.813,3.98s-5.823,1.474-8.034,1.916c-2.211,0.443-3.612,1.843-5.159,3.022c-1.548,1.18-3.907,1.622-3.907,1.622
		c-2.211,0.516-2.653,0.073-4.054,0.589c-2.653,0.885-3.316,3.907-3.316,3.907c0,0.075-0.008,11.924,0.164,14.324
		c0.171,2.4,0.428,1.2,1.2,5.057c0.771,3.857,2.4,8.228,3.857,9.857c1.457,1.628,1.8,4.028,1.8,4.028
		c0.428,3.429,1.714,8.229,1.714,8.229c2.485,7.114,6.685,9.514,9.428,14.142c0.943,1.286,5.486,8.657,9.857,16.285
		s14.742,13.028,14.742,13.028c1.886,0.942,5.829,3.343,7.543,5.485c4.457,3.857,6.685,4.114,6.685,4.114
		c1.372,0.343,5.914,1.2,8.829-0.686c2.914-1.886,1.628-2.485,1.457-4.801c-0.172-2.313,1.714-7.542,1.714-7.542
		s2.571-5.229,4.114-9.428c1.543-4.2,7.234-3.991,8.192-4.286s1.622-0.884,0.074-3.685
		C141.745,280.182,136.66,277.971,135.039,277.233"/>
	<path clip-path="url(#SVGID_2_)" fill="#E52329" d="M108.278,139.024c1.314,4.595-0.143,9.042-3.255,9.932
		c-3.112,0.89-6.7-2.114-8.014-6.709c-1.314-4.595,0.143-9.042,3.255-9.932C103.376,131.425,106.964,134.429,108.278,139.024"/>
	
		<line clip-path="url(#SVGID_2_)" fill="none" stroke="#FFFFFF" stroke-width="1.748" stroke-miterlimit="10" x1="17.38" y1="471.467" x2="267.681" y2="471.467"/>
	<path clip-path="url(#SVGID_2_)" fill="#FFFFFF" d="M17.253,405.901h12.08c3.93,0,6.877,1.055,8.844,3.163
		c1.965,2.11,2.948,5.202,2.948,9.275v25.453c0,4.074-0.983,7.166-2.948,9.274c-1.967,2.11-4.914,3.164-8.844,3.164h-12.08V405.901z
		 M29.189,449.041c1.294,0,2.289-0.383,2.984-1.15c0.694-0.766,1.042-2.013,1.042-3.738V417.98c0-1.726-0.348-2.972-1.042-3.739
		c-0.695-0.766-1.69-1.15-2.984-1.15h-4.026v35.95H29.189z"/>
	<polygon clip-path="url(#SVGID_2_)" fill="#FFFFFF" points="46.445,405.901 68.015,405.901 68.015,413.091 54.354,413.091 
		54.354,426.393 65.211,426.393 65.211,433.583 54.354,433.583 54.354,449.041 68.015,449.041 68.015,456.231 46.445,456.231 	"/>
	<polygon clip-path="url(#SVGID_2_)" fill="#FFFFFF" points="73.982,405.901 95.552,405.901 95.552,413.091 81.891,413.091 
		81.891,426.393 92.748,426.393 92.748,433.583 81.891,433.583 81.891,449.041 95.552,449.041 95.552,456.231 73.982,456.231 	"/>
	<polygon clip-path="url(#SVGID_2_)" fill="#FFFFFF" points="99.65,405.901 107.272,405.901 110.795,444.584 110.938,444.584 
		114.677,405.901 123.305,405.901 127.044,444.584 127.188,444.584 130.711,405.901 137.542,405.901 132.437,456.231 
		122.586,456.231 118.991,422.295 118.847,422.295 115.252,456.231 104.755,456.231 	"/>
	<path clip-path="url(#SVGID_2_)" fill="#FFFFFF" d="M146.673,405.901h10.713l8.196,50.33h-7.908l-1.438-9.993v0.143h-8.988
		l-1.438,9.851h-7.334L146.673,405.901z M155.301,439.551l-3.523-24.878h-0.144l-3.451,24.878H155.301z"/>
	<polygon clip-path="url(#SVGID_2_)" fill="#FFFFFF" points="169.392,405.901 179.313,405.901 187.008,436.027 187.151,436.027 
		187.151,405.901 194.198,405.901 194.198,456.231 186.073,456.231 176.582,419.49 176.438,419.49 176.438,456.231 169.392,456.231 
			"/>
	<path clip-path="url(#SVGID_2_)" fill="#FFFFFF" d="M206.204,405.901h10.713l8.197,50.33h-7.909l-1.438-9.993v0.143h-8.988
		l-1.438,9.851h-7.334L206.204,405.901z M214.832,439.551l-3.522-24.878h-0.145l-3.451,24.878H214.832z"/>
	<path clip-path="url(#SVGID_2_)" fill="#FFFFFF" d="M246.322,453.679c-1.967-2.181-2.948-5.308-2.948-9.383v-2.876h7.478v3.451
		c0,3.261,1.366,4.89,4.099,4.89c1.341,0,2.359-0.396,3.056-1.187c0.694-0.792,1.042-2.073,1.042-3.847
		c0-2.108-0.479-3.966-1.438-5.572c-0.96-1.605-2.732-3.534-5.32-5.788c-3.26-2.875-5.537-5.476-6.831-7.802
		c-1.294-2.323-1.941-4.948-1.941-7.873c0-3.978,1.007-7.057,3.021-9.239c2.013-2.18,4.936-3.271,8.771-3.271
		c3.786,0,6.651,1.091,8.594,3.271c1.94,2.183,2.911,5.31,2.911,9.384v2.085h-7.478v-2.589c0-1.726-0.336-2.983-1.007-3.774
		c-0.672-0.791-1.653-1.187-2.947-1.187c-2.637,0-3.955,1.606-3.955,4.817c0,1.822,0.491,3.523,1.475,5.105
		c0.981,1.581,2.768,3.499,5.356,5.752c3.307,2.876,5.583,5.488,6.83,7.837c1.246,2.349,1.869,5.104,1.869,8.269
		c0,4.123-1.02,7.286-3.055,9.49c-2.038,2.206-4.997,3.307-8.881,3.307C251.186,456.949,248.287,455.86,246.322,453.679"/>
	<path clip-path="url(#SVGID_2_)" fill="#E52629" d="M237.126,415.92c0.067,2.045-0.466,3.885-1.881,5.337
		c-1.645,1.686-4.143,1.622-6.306-0.017c-3.326-2.52-5.363-8.728-4.126-12.575c1.406-4.37,5.244-5.305,8.493-2.088
		C235.917,409.163,236.714,412.461,237.126,415.92"/>
	<polygon clip-path="url(#SVGID_2_)" fill="#FFFFFF" points="32.637,526.504 20.68,514.602 19.407,515.875 19.407,526.504 
		17.137,526.504 17.137,485.539 19.407,485.539 19.407,512.609 29.316,502.756 32.527,502.756 22.175,513.052 35.626,526.504 	"/>
	<path clip-path="url(#SVGID_2_)" fill="#FFFFFF" d="M59.153,499.545c-0.406,0-0.83-0.166-1.273-0.498
		c-0.332-0.333-0.517-0.775-0.553-1.329c0-0.996,0.609-1.605,1.826-1.827c0.922,0,1.531,0.609,1.827,1.827
		C60.98,498.936,60.371,499.545,59.153,499.545 M57.991,503.642h2.27v22.862h-2.27V503.642z"/>
	<polygon clip-path="url(#SVGID_2_)" fill="#FFFFFF" points="91.98,505.911 91.98,526.504 89.71,526.504 89.71,505.911 
		86.61,505.911 86.61,503.641 89.71,503.641 89.71,493.621 91.98,493.621 91.98,503.641 97.294,503.641 97.294,505.911 	"/>
	<path clip-path="url(#SVGID_2_)" fill="#FFFFFF" d="M130.786,526.946c-3.395,0-6.219-1.125-8.47-3.376s-3.376-5.074-3.376-8.47
		s1.125-6.219,3.376-8.47s5.075-3.377,8.47-3.377c2.915,0,5.24,0.664,6.975,1.992v2.713l-1.439-0.941l-1.55-0.83
		c-1.403-0.479-2.732-0.72-3.986-0.72c-2.842,0-5.148,0.886-6.919,2.657c-1.809,1.809-2.713,4.133-2.713,6.976
		c0,2.805,0.904,5.111,2.713,6.919c1.807,1.809,4.114,2.713,6.919,2.713c2.657,0,4.982-0.886,6.975-2.657v2.823
		C135.694,526.265,133.369,526.946,130.786,526.946"/>
	<path clip-path="url(#SVGID_2_)" fill="#FFFFFF" d="M178.725,526.56v-13.784c0-4.834-2.251-7.252-6.753-7.252
		c-1.847,0-3.433,0.554-4.761,1.66c-1.366,1.107-2.049,2.584-2.049,4.429v14.892h-2.27v-40.965h2.27v21.146
		c1.364-2.25,3.635-3.377,6.81-3.377c6.014,0,9.023,3.082,9.023,9.245v14.006H178.725z"/>
	<path clip-path="url(#SVGID_2_)" fill="#FFFFFF" d="M205.572,514.602c0,3.101,0.83,5.556,2.491,7.363
		c1.734,1.846,4.115,2.768,7.142,2.768c1.55,0,2.951-0.258,4.208-0.775c1.586-0.664,3.007-2.011,4.262-4.041l2.048,0.941
		c-1.439,2.731-3.653,4.576-6.643,5.536c-1.145,0.368-2.437,0.553-3.875,0.553c-3.433,0-6.256-1.125-8.471-3.376
		c-2.251-2.251-3.376-5.073-3.376-8.47c0-3.433,1.107-6.256,3.321-8.47c2.251-2.251,5.093-3.377,8.525-3.377
		c3.395,0,6.199,1.052,8.415,3.155c2.25,2.104,3.376,4.835,3.376,8.192H205.572z M221.184,507.351
		c-1.735-1.255-3.728-1.883-5.979-1.883c-4.725,0-7.824,2.325-9.301,6.976h18.545C224.08,510.34,222.992,508.643,221.184,507.351"/>
	<path clip-path="url(#SVGID_2_)" fill="#FFFFFF" d="M265.082,526.504V512.83c0-4.834-2.179-7.251-6.532-7.251
		c-2.142,0-3.764,0.628-4.872,1.882c-1.145,1.255-1.716,2.971-1.716,5.148v13.895h-2.27v-22.862h2.27v2.768
		c1.033-2.029,3.229-3.045,6.588-3.045c2.841,0,5.018,0.813,6.532,2.436c1.513,1.625,2.27,3.895,2.27,6.81v13.895H265.082z"/>
</g>
</svg>
